<svg width="20" height="20" viewBox="0 0 20 20" fill="none" xmlns="http://www.w3.org/2000/svg">
<path d="M15.3667 2.5498H4.63338C4.08132 2.55134 3.55231 2.77133 3.16194 3.1617C2.77158 3.55207 2.55159 4.08108 2.55005 4.63314V15.3665C2.55159 15.9185 2.77158 16.4475 3.16194 16.8379C3.55231 17.2283 4.08132 17.4483 4.63338 17.4498H15.3667C15.9193 17.4498 16.4492 17.2303 16.8399 16.8396C17.2306 16.4489 17.45 15.919 17.45 15.3665V4.63314C17.45 4.0806 17.2306 3.5507 16.8399 3.16C16.4492 2.7693 15.9193 2.5498 15.3667 2.5498ZM16.6167 15.3665C16.6145 15.6973 16.4821 16.014 16.2482 16.2479C16.0142 16.4819 15.6976 16.6143 15.3667 16.6165H4.63338C4.30254 16.6143 3.98586 16.4819 3.75191 16.2479C3.51796 16.014 3.38557 15.6973 3.38338 15.3665V4.63314C3.38557 4.30229 3.51796 3.98562 3.75191 3.75167C3.98586 3.51772 4.30254 3.38532 4.63338 3.38314H15.3667C15.6976 3.38532 16.0142 3.51772 16.2482 3.75167C16.4821 3.98562 16.6145 4.30229 16.6167 4.63314V15.3665Z" fill="black"/>
<path d="M5.31335 8.95687C5.31335 8.73585 5.40115 8.52389 5.55743 8.36761C5.71371 8.21133 5.92567 8.12354 6.14669 8.12354C6.3677 8.12354 6.57966 8.21133 6.73594 8.36761C6.89222 8.52389 6.98002 8.73585 6.98002 8.95687V14.3735C6.98002 14.5945 6.89222 14.8065 6.73594 14.9628C6.57966 15.1191 6.3677 15.2069 6.14669 15.2069C5.92567 15.2069 5.71371 15.1191 5.55743 14.9628C5.40115 14.8065 5.31335 14.5945 5.31335 14.3735V8.95687Z" fill="black"/>
<path d="M6.14669 6.45329C6.60693 6.45329 6.98002 6.08019 6.98002 5.61995C6.98002 5.15972 6.60693 4.78662 6.14669 4.78662C5.68645 4.78662 5.31335 5.15972 5.31335 5.61995C5.31335 6.08019 5.68645 6.45329 6.14669 6.45329Z" fill="black"/>
<path d="M14.6833 11.1415V14.3748C14.6833 14.5958 14.5955 14.8078 14.4392 14.9641C14.283 15.1203 14.071 15.2081 13.85 15.2081C13.629 15.2081 13.417 15.1203 13.2607 14.9641C13.1045 14.8078 13.0167 14.5958 13.0167 14.3748V11.1415C13.0167 10.7845 12.8749 10.4422 12.6225 10.1898C12.3701 9.93743 12.0278 9.79564 11.6708 9.79564C11.3139 9.79564 10.9716 9.93743 10.7192 10.1898C10.4668 10.4422 10.325 10.7845 10.325 11.1415V14.3748C10.325 14.5958 10.2372 14.8078 10.0809 14.9641C9.92463 15.1203 9.71267 15.2081 9.49166 15.2081C9.27064 15.2081 9.05868 15.1203 8.9024 14.9641C8.74612 14.8078 8.65833 14.5958 8.65833 14.3748V8.95814C8.66176 8.7382 8.75066 8.52823 8.9062 8.37269C9.06175 8.21714 9.27172 8.12824 9.49166 8.12481C9.6328 8.12094 9.77237 8.1553 9.89559 8.22424C10.0188 8.29319 10.1211 8.39416 10.1917 8.51647C10.6499 8.25677 11.1683 8.12192 11.6949 8.12541C12.2216 8.1289 12.7382 8.27061 13.1929 8.53637C13.6476 8.80212 14.0246 9.18261 14.2862 9.63978C14.5477 10.0969 14.6847 10.6148 14.6833 11.1415Z" fill="black"/>
</svg>
