<svg width="30" height="30" viewBox="0 0 30 30" fill="none" xmlns="http://www.w3.org/2000/svg">
<g clip-path="url(#clip0_0_239)">
<path fill-rule="evenodd" clip-rule="evenodd" d="M24.4444 0.106852C24.7014 0.213295 24.921 0.393562 25.0755 0.624852C25.2301 0.856142 25.3125 1.12806 25.3125 1.40623V4.68748H28.5937C28.8717 4.68772 29.1433 4.77033 29.3744 4.92487C29.6054 5.0794 29.7855 5.29894 29.8918 5.55575C29.9981 5.81255 30.026 6.09511 29.9718 6.36773C29.9177 6.64036 29.7839 6.89081 29.5875 7.08748L23.9625 12.7125C23.699 12.9763 23.3416 13.1246 22.9687 13.125H22.2619C22.6342 14.5673 22.5686 16.0878 22.0735 17.4927C21.5783 18.8976 20.676 20.1232 19.4816 21.0133C18.2872 21.9035 16.8548 22.4178 15.367 22.4907C13.8792 22.5636 12.4033 22.1918 11.1276 21.4227C9.85195 20.6536 8.83416 19.522 8.20403 18.1723C7.57391 16.8225 7.35998 15.3157 7.58953 13.8439C7.81908 12.3721 8.4817 11.002 9.49293 9.9082C10.5042 8.81443 11.8182 8.04656 13.2675 7.70248C13.6305 7.6162 14.0129 7.67766 14.3306 7.87334C14.6483 8.06903 14.8753 8.3829 14.9616 8.74591C15.0478 9.10893 14.9864 9.49135 14.7907 9.80905C14.595 10.1267 14.2811 10.3537 13.9181 10.44C12.9811 10.6618 12.1352 11.1669 11.4953 11.8865C10.8554 12.6061 10.4527 13.5053 10.3418 14.4618C10.231 15.4183 10.4174 16.3858 10.8758 17.2326C11.3341 18.0794 12.0422 18.7646 12.9036 19.1949C13.7651 19.6251 14.7381 19.7797 15.6905 19.6374C16.6429 19.4952 17.5283 19.0632 18.2265 18.4C18.9247 17.7368 19.4016 16.8747 19.5926 15.9309C19.7835 14.9871 19.6792 14.0074 19.2937 13.125H18.8625L15.9937 15.9937C15.865 16.1319 15.7098 16.2427 15.5373 16.3196C15.3648 16.3964 15.1785 16.4378 14.9897 16.4411C14.8009 16.4444 14.6134 16.4097 14.4383 16.339C14.2631 16.2682 14.1041 16.163 13.9706 16.0294C13.837 15.8959 13.7317 15.7368 13.661 15.5617C13.5903 15.3866 13.5556 15.1991 13.5589 15.0102C13.5622 14.8214 13.6035 14.6352 13.6804 14.4627C13.7573 14.2902 13.8681 14.135 14.0062 14.0062L16.875 11.1375V7.03123C16.8753 6.65839 17.0237 6.30095 17.2875 6.03748L22.9125 0.412477C23.109 0.215805 23.3594 0.0818029 23.6321 0.0274046C23.9048 -0.0269937 24.1874 0.000653195 24.4444 0.106852ZM19.6875 7.61435V10.3125H22.3875L25.2 7.49998H22.5V4.79998L19.6875 7.61435ZM9.0375 4.36873C11.2336 3.13687 13.7574 2.61548 16.2619 2.87623C16.4456 2.89531 16.6312 2.87803 16.8082 2.82536C16.9852 2.7727 17.1501 2.68569 17.2935 2.56929C17.4369 2.4529 17.5559 2.30941 17.6439 2.14701C17.7318 1.9846 17.7869 1.80648 17.8059 1.62279C17.825 1.4391 17.8077 1.25346 17.7551 1.07645C17.7024 0.899442 17.6154 0.734542 17.499 0.591162C17.3826 0.447783 17.2391 0.328733 17.0767 0.240809C16.9143 0.152885 16.7362 0.0978092 16.5525 0.0787265C13.4698 -0.242032 10.3633 0.400021 7.66035 1.91661C4.95736 3.4332 2.79053 5.74985 1.45776 8.54805C0.125 11.3463 -0.308246 14.4886 0.217591 17.5431C0.743428 20.5975 2.20253 23.4141 4.39428 25.6055C6.58603 27.797 9.4028 29.2557 12.4573 29.7811C15.5119 30.3065 18.6541 29.8728 21.4522 28.5396C24.2502 27.2065 26.5665 25.0393 28.0827 22.3361C29.5989 19.6329 30.2406 16.5264 29.9194 13.4437C29.9003 13.26 29.8452 13.0819 29.7573 12.9195C29.6694 12.7571 29.5503 12.6136 29.4069 12.4972C29.2636 12.3808 29.0987 12.2938 28.9216 12.2412C28.7446 12.1885 28.559 12.1712 28.3753 12.1903C28.1916 12.2094 28.0135 12.2644 27.8511 12.3524C27.6887 12.4403 27.5452 12.5593 27.4288 12.7027C27.3124 12.8461 27.2254 13.011 27.1727 13.188C27.1201 13.365 27.1028 13.5507 27.1219 13.7344C27.3503 15.922 26.9824 18.1306 26.0572 20.1261C25.1321 22.1216 23.6841 23.8295 21.867 25.0688C20.0498 26.308 17.9311 27.0324 15.7356 27.1651C13.5401 27.2979 11.3496 26.8339 9.39643 25.8226C7.44321 24.8113 5.80009 23.2902 4.6413 21.4207C3.48252 19.5512 2.85125 17.4029 2.81446 15.2037C2.77766 13.0045 3.3367 10.8364 4.4323 8.92913C5.5279 7.0219 7.11921 5.44672 9.0375 4.3706V4.36873Z" fill="black"/>
</g>
<defs>
<clipPath id="clip0_0_239">
<rect width="30" height="30" fill="white"/>
</clipPath>
</defs>
</svg>
