<svg width="178" height="90" viewBox="0 0 178 90" fill="none" xmlns="http://www.w3.org/2000/svg">
<path d="M14.9122 90C6.12415 90 -1.14267 82.8215 0.403022 74.1704C1.5406 67.8035 3.36391 61.5625 5.85085 55.5585C10.3738 44.6392 17.0031 34.7177 25.3604 26.3604C33.7177 18.0031 43.6392 11.3738 54.5585 6.85084C65.4778 2.32792 77.181 -1.54987e-06 89 0C100.819 1.54987e-06 112.522 2.32792 123.442 6.85085C134.361 11.3738 144.282 18.0031 152.64 26.3604C160.997 34.7177 167.626 44.6392 172.149 55.5585C174.636 61.5625 176.459 67.8035 177.597 74.1704C179.143 82.8215 171.876 90 163.088 90C154.3 90 147.387 82.7468 145.013 74.2854C144.39 72.0641 143.634 69.8773 142.747 67.7372C139.824 60.679 135.538 54.2658 130.136 48.8637C124.734 43.4616 118.321 39.1764 111.263 36.2528C104.205 33.3292 96.6397 31.8245 89 31.8245C81.3603 31.8245 73.7954 33.3292 66.7372 36.2528C59.679 39.1764 53.2658 43.4616 47.8637 48.8637C42.4616 54.2658 38.1764 60.679 35.2528 67.7372C34.3664 69.8773 33.6103 72.0641 32.9871 74.2853C30.6133 82.7467 23.7003 90 14.9122 90Z" fill="#BEDC38"/>
</svg>
